{
	"patcher" : 	{
		"fileversion" : 1,
		"appversion" : 		{
			"major" : 8,
			"minor" : 2,
			"revision" : 2,
			"architecture" : "x64",
			"modernui" : 1
		}
,
		"classnamespace" : "box",
		"rect" : [ 295.0, 127.0, 934.0, 699.0 ],
		"bglocked" : 0,
		"openinpresentation" : 0,
		"default_fontsize" : 12.0,
		"default_fontface" : 0,
		"default_fontname" : "Arial",
		"gridonopen" : 1,
		"gridsize" : [ 15.0, 15.0 ],
		"gridsnaponopen" : 1,
		"objectsnaponopen" : 1,
		"statusbarvisible" : 2,
		"toolbarvisible" : 1,
		"lefttoolbarpinned" : 0,
		"toptoolbarpinned" : 0,
		"righttoolbarpinned" : 0,
		"bottomtoolbarpinned" : 0,
		"toolbars_unpinned_last_save" : 0,
		"tallnewobj" : 0,
		"boxanimatetime" : 200,
		"enablehscroll" : 1,
		"enablevscroll" : 1,
		"devicewidth" : 0.0,
		"description" : "",
		"digest" : "",
		"tags" : "",
		"style" : "",
		"subpatcher_template" : "",
		"assistshowspatchername" : 0,
		"boxes" : [ 			{
				"box" : 				{
					"id" : "obj-12",
					"maxclass" : "scope~",
					"numinlets" : 2,
					"numoutlets" : 0,
					"patching_rect" : [ 399.0, 232.0, 434.0, 180.0 ]
				}

			}
, 			{
				"box" : 				{
					"id" : "obj-18",
					"maxclass" : "message",
					"numinlets" : 2,
					"numoutlets" : 1,
					"outlettype" : [ "" ],
					"patching_rect" : [ 45.0, 50.0, 50.0, 22.0 ],
					"text" : "compile"
				}

			}
, 			{
				"box" : 				{
					"id" : "obj-7",
					"maxclass" : "newobj",
					"numinlets" : 2,
					"numoutlets" : 1,
					"outlettype" : [ "signal" ],
					"patching_rect" : [ 224.0, 427.0, 47.0, 22.0 ],
					"text" : "*~ 0.01"
				}

			}
, 			{
				"box" : 				{
					"id" : "obj-5",
					"maxclass" : "newobj",
					"numinlets" : 2,
					"numoutlets" : 1,
					"outlettype" : [ "signal" ],
					"patching_rect" : [ 99.0, 398.0, 47.0, 22.0 ],
					"text" : "*~ 0.01"
				}

			}
, 			{
				"box" : 				{
					"id" : "obj-3",
					"maxclass" : "newobj",
					"numinlets" : 2,
					"numoutlets" : 0,
					"patching_rect" : [ 184.0, 585.0, 35.0, 22.0 ],
					"text" : "dac~"
				}

			}
, 			{
				"box" : 				{
					"id" : "obj-6",
					"maxclass" : "message",
					"numinlets" : 2,
					"numoutlets" : 1,
					"outlettype" : [ "" ],
					"patching_rect" : [ 199.5, 51.0, 31.0, 22.0 ],
					"text" : "stop"
				}

			}
, 			{
				"box" : 				{
					"id" : "obj-4",
					"maxclass" : "message",
					"numinlets" : 2,
					"numoutlets" : 1,
					"outlettype" : [ "" ],
					"patching_rect" : [ 151.0, 51.0, 32.0, 22.0 ],
					"text" : "start"
				}

			}
, 			{
				"box" : 				{
					"id" : "obj-2",
					"lastchannelcount" : 0,
					"maxclass" : "live.gain~",
					"numinlets" : 2,
					"numoutlets" : 5,
					"outlettype" : [ "signal", "signal", "", "float", "list" ],
					"parameter_enable" : 1,
					"patching_rect" : [ 151.0, 436.0, 48.0, 136.0 ],
					"saved_attribute_attributes" : 					{
						"valueof" : 						{
							"parameter_longname" : "live.gain~",
							"parameter_mmax" : 6.0,
							"parameter_mmin" : -70.0,
							"parameter_shortname" : "live.gain~",
							"parameter_type" : 0,
							"parameter_unitstyle" : 4
						}

					}
,
					"varname" : "live.gain~"
				}

			}
, 			{
				"box" : 				{
					"id" : "obj-1",
					"maxclass" : "newobj",
					"numinlets" : 1,
					"numoutlets" : 3,
					"outlettype" : [ "signal", "signal", "signal" ],
					"patching_rect" : [ 73.5, 116.0, 303.0, 22.0 ],
					"text" : "luagran~ template_fm_multichan.lua @FM 1 @chans 3"
				}

			}
 ],
		"lines" : [ 			{
				"patchline" : 				{
					"destination" : [ "obj-5", 0 ],
					"source" : [ "obj-1", 0 ]
				}

			}
, 			{
				"patchline" : 				{
					"destination" : [ "obj-7", 0 ],
					"source" : [ "obj-1", 1 ]
				}

			}
, 			{
				"patchline" : 				{
					"destination" : [ "obj-1", 0 ],
					"source" : [ "obj-18", 0 ]
				}

			}
, 			{
				"patchline" : 				{
					"destination" : [ "obj-3", 1 ],
					"source" : [ "obj-2", 1 ]
				}

			}
, 			{
				"patchline" : 				{
					"destination" : [ "obj-3", 0 ],
					"source" : [ "obj-2", 0 ]
				}

			}
, 			{
				"patchline" : 				{
					"destination" : [ "obj-1", 0 ],
					"source" : [ "obj-4", 0 ]
				}

			}
, 			{
				"patchline" : 				{
					"destination" : [ "obj-2", 0 ],
					"source" : [ "obj-5", 0 ]
				}

			}
, 			{
				"patchline" : 				{
					"destination" : [ "obj-1", 0 ],
					"source" : [ "obj-6", 0 ]
				}

			}
, 			{
				"patchline" : 				{
					"destination" : [ "obj-12", 0 ],
					"order" : 0,
					"source" : [ "obj-7", 0 ]
				}

			}
, 			{
				"patchline" : 				{
					"destination" : [ "obj-2", 1 ],
					"order" : 1,
					"source" : [ "obj-7", 0 ]
				}

			}
 ],
		"parameters" : 		{
			"obj-2" : [ "live.gain~", "live.gain~", 0 ],
			"parameterbanks" : 			{

			}
,
			"inherited_shortname" : 1
		}
,
		"dependency_cache" : [ 			{
				"name" : "luagran~.mxe64",
				"type" : "mx64"
			}
 ],
		"autosave" : 0
	}

}
