#N canvas 667 170 647 314 12;
#X obj 160 88 luagran~ template.lua;
#X obj 158 131 *~ 0.1;
#X obj 301 127 *~ 0.1;
#X obj 222 181 dac~;
#X msg 152 41 start;
#X msg 205 40 stop;
#X msg 31 58 anything;
#X floatatom 469 79 5 0 0 0 - - - 0;
#X connect 0 0 1 0;
#X connect 0 1 2 0;
#X connect 1 0 3 0;
#X connect 2 0 3 1;
#X connect 4 0 0 0;
#X connect 5 0 0 0;
#X connect 6 0 0 0;
#X connect 7 0 0 0;
